<svg fill="#7950F2" xmlns="http://www.w3.org/2000/svg"  viewBox="0 0 30 30" width="30px" height="30px"><path d="M 8.984375 3.9863281 A 1.0001 1.0001 0 0 0 8 5 L 8 16 A 1.0001 1.0001 0 1 0 10 16 L 10 5 A 1.0001 1.0001 0 0 0 8.984375 3.9863281 z M 4.984375 6.9863281 A 1.0001 1.0001 0 0 0 4 8 L 4 16 A 1.0001 1.0001 0 1 0 6 16 L 6 8 A 1.0001 1.0001 0 0 0 4.984375 6.9863281 z M 12.984375 9.9863281 A 1.0001 1.0001 0 0 0 12 11 L 12 16 A 1.0001 1.0001 0 1 0 14 16 L 14 11 A 1.0001 1.0001 0 0 0 12.984375 9.9863281 z M 0.984375 11.986328 A 1.0001 1.0001 0 0 0 0 13 L 0 16 A 1.0001 1.0001 0 1 0 2 16 L 2 13 A 1.0001 1.0001 0 0 0 0.984375 11.986328 z M 16.984375 14.986328 A 1.0001 1.0001 0 0 0 16 16 L 16 21 A 1.0001 1.0001 0 1 0 18 21 L 18 16 A 1.0001 1.0001 0 0 0 16.984375 14.986328 z M 20.984375 14.986328 A 1.0001 1.0001 0 0 0 20 16 L 20 26 A 1.0001 1.0001 0 1 0 22 26 L 22 16 A 1.0001 1.0001 0 0 0 20.984375 14.986328 z M 24.984375 14.986328 A 1.0001 1.0001 0 0 0 24 16 L 24 23 A 1.0001 1.0001 0 1 0 26 23 L 26 16 A 1.0001 1.0001 0 0 0 24.984375 14.986328 z M 28.984375 14.986328 A 1.0001 1.0001 0 0 0 28 16 L 28 19 A 1.0001 1.0001 0 1 0 30 19 L 30 16 A 1.0001 1.0001 0 0 0 28.984375 14.986328 z"/></svg>