<svg fill="#7950F2" xmlns="http://www.w3.org/2000/svg"  viewBox="0 0 50 50" width="100px" height="100px"><path d="M 17.75 7 C 14.011905 7 11.186064 8.351852 8.7578125 9.6132812 C 6.329561 10.874711 4.3075397 12 2 12 L 1 12 L 1 14 L 2 14 C 4.9424603 14 7.295439 12.625289 9.6796875 11.386719 C 12.063936 10.148148 14.488095 9 17.75 9 C 21.705487 9 26.464618 10.216375 31.107422 11.464844 C 35.750226 12.713312 40.261905 14 44 14 L 44 16 C 45.667 15 47.333 14 49 13 C 47.333 12 45.667 11 44 10 L 44 12 C 40.738095 12 36.281149 10.786688 31.626953 9.5351562 C 26.972757 8.2836247 22.106513 7 17.75 7 z M 17.75 14 C 14.011905 14 11.186064 15.351852 8.7578125 16.613281 C 6.329561 17.874711 4.3075397 19 2 19 L 1 19 L 1 21 L 2 21 C 4.9424603 21 7.295439 19.625289 9.6796875 18.386719 C 12.063936 17.148148 14.488095 16 17.75 16 C 21.705487 16 26.464618 17.216375 31.107422 18.464844 C 35.750226 19.713312 40.261905 21 44 21 L 44 23 C 45.667 22 47.333 21 49 20 C 47.333 19 45.667 18 44 17 L 44 19 C 40.738095 19 36.281149 17.786688 31.626953 16.535156 C 26.972757 15.283625 22.106513 14 17.75 14 z M 16.875 20 C 12.526 20 9 22.462 9 25.5 C 9 28.538 12.526 31 16.875 31 C 26.5 31 37 25.5 37 25.5 C 37 25.5 26.5 20 16.875 20 z M 44 28 L 44 30 C 40.261905 30 35.750226 31.286688 31.107422 32.535156 C 26.464618 33.783625 21.705487 35 17.75 35 C 14.488095 35 12.063936 33.851852 9.6796875 32.613281 C 7.295439 31.374711 4.9424603 30 2 30 L 1 30 L 1 32 L 2 32 C 4.3075397 32 6.329561 33.125289 8.7578125 34.386719 C 11.186064 35.648148 14.011905 37 17.75 37 C 22.106513 37 26.972757 35.716375 31.626953 34.464844 C 36.281149 33.213312 40.738095 32 44 32 L 44 34 C 45.667 33 47.333 32 49 31 C 47.333 30 45.667 29 44 28 z M 44 35 L 44 37 C 40.261905 37 35.750226 38.286688 31.107422 39.535156 C 26.464618 40.783625 21.705487 42 17.75 42 C 14.488095 42 12.063936 40.851852 9.6796875 39.613281 C 7.295439 38.374711 4.9424603 37 2 37 L 1 37 L 1 39 L 2 39 C 4.3075397 39 6.329561 40.125289 8.7578125 41.386719 C 11.186064 42.648148 14.011905 44 17.75 44 C 22.106513 44 26.972757 42.716375 31.626953 41.464844 C 36.281149 40.213312 40.738095 39 44 39 L 44 41 C 45.667 40 47.333 39 49 38 C 47.333 37 45.667 36 44 35 z"/></svg>