<svg fill="#7950F2" xmlns="http://www.w3.org/2000/svg"  viewBox="0 0 128 128" width="64px" height="64px"><path d="M88.6 110.7a1 1 0 01-.264-1.965c.633-.172 1.256-.36 1.87-.559a1 1 0 01.618 1.9q-.964.314-1.959.587A1.011 1.011 0 0188.6 110.7zm6.565-2.4a1 1 0 01-.421-1.907q.888-.413 1.745-.864a1 1 0 01.932 1.77q-.9.474-1.837.908A1 1 0 0195.164 108.3zm6.06-3.48a1 1 0 01-.572-1.821q.8-.558 1.573-1.15a1 1 0 111.22 1.584q-.808.623-1.652 1.209A.993.993 0 01101.224 104.821zm5.377-4.462a1 1 0 01-.7-1.713q.7-.684 1.359-1.4a1 1 0 111.466 1.359q-.693.748-1.422 1.465A1 1 0 01106.6 100.359zm4.574-5.278a1 1 0 01-.8-1.594q.581-.787 1.128-1.6a1 1 0 111.658 1.117q-.57.847-1.178 1.669A1 1 0 01111.175 95.081zm3.73-5.917a1 1 0 01-.88-1.473q.462-.863.892-1.747a1 1 0 111.8.875q-.447.919-.927 1.818A1 1 0 01114.905 89.164zm2.883-6.376a1 1 0 01-.936-1.352q.346-.918.657-1.85a1 1 0 011.9.635q-.324.966-.683 1.92A1 1 0 01117.788 82.788zm2.051-6.69a.945.945 0 01-.235-.029 1 1 0 01-.738-1.206q.231-.954.428-1.917a1 1 0 111.959.4q-.206 1-.443 1.983A1 1 0 01119.839 76.1zm1.237-6.885a.966.966 0 01-.12-.007 1 1 0 01-.875-1.111q.117-.98.2-1.955a.984.984 0 011.082-.911 1 1 0 01.91 1.083q-.087 1.008-.208 2.019A1 1 0 01121.076 69.213zm.425-6.98a1 1 0 01-1-1v-.148q0-.912-.028-1.819a1 1 0 112-.063q.03.939.029 1.883v.147A1 1 0 01121.5 62.233zM121.1 55.25a1 1 0 01-.992-.881q-.117-.978-.269-1.945a1 1 0 111.976-.311q.157 1 .279 2.018a1 1 0 01-.994 1.119zm-1.287-6.875a1 1 0 01-.968-.75q-.247-.954-.53-1.885a1 1 0 011.914-.582q.294.974.552 1.967a1 1 0 01-.968 1.25zm-2.259-6.619a1 1 0 01-.919-.6c-.259-.6-.532-1.19-.818-1.768a1 1 0 011.793-.887q.452.914.861 1.86a1 1 0 01-.521 1.316A1.011 1.011 0 01117.55 41.756zM114.2 35.622a1 1 0 01-.828-.437q-.549-.809-1.138-1.571a1 1 0 011.582-1.222q.627.81 1.21 1.668a1 1 0 01-.826 1.562zM105.74 37.94a22.8 22.8 0 00-4.925-4.649 46.824 46.824 0 005.121-12.2 4.638 4.638 0 00-1.479-4.5A62.25 62.25 0 1063.25 125.5c.375 0 .746 0 1.117-.01a2.848 2.848 0 001.815-.678c6.266-5.434 9.707-15.835 11.128-19.282a4.08 4.08 0 014.19-2.48c16.18 1.53 25.43-17.61 28.8-26.34C113.91 67.41 115.5 50.16 105.74 37.94zM72.867 41.785A3.944 3.944 0 0170.111 43.6 25.53 25.53 0 0153.2 40.37c-6.47-4.01-11.03-11.06-13.19-20.4a1.5 1.5 0 10-2.92.67c2.34 10.14 7.37 17.84 14.53 22.28a25.742 25.742 0 0013.63 3.86 27.153 27.153 0 004.157-.323.275.275 0 01.256.451 10.773 10.773 0 01-5.5 3.172c-19.26 4.37-34.278-8.638-41.828-28a1.591 1.591 0 01.347-1.69 59 59 0 014.346-4.023 59.251 59.251 0 0175.481 2.508 1.6 1.6 0 01.506 1.551 43.981 43.981 0 01-4.79 11.354C89.982 27.778 79.931 30.31 72.867 41.785zM89.806 76.566c-2.532 2.038-1.131 8.394-5.033 6.67-2.153-.951-2.343-3.423-2.144-6.093.392-5.26 6.559-9.717 3.348-13.916a20.518 20.518 0 01-2.888-5.1 1.011 1.011 0 011.548-1.138c4.668 3.083 14.877 3 14.564 7.346C98.768 70.349 93.346 73.717 89.806 76.566zM107.556 62.6a1.27 1.27 0 01-1.409 1.188.716.716 0 01-.525-.164 2.452 2.452 0 01-1.035-2.095c.108-9.249-4.773-18.692-11.457-22.352a1.541 1.541 0 00-1.264-.081c-.6.215-1.394.521-1.7.671-4.48 2.193-8.128 6.777-9.919 12.562a1.5 1.5 0 01-2.867-.887c2.254-7.276 7.18-12.92 13.179-15.1a21.1 21.1 0 013.625-.822 11.434 11.434 0 017.473 1.669 1.44 1.44 0 01.639 1.413 1.508 1.508 0 01-2.312 1.078 7.563 7.563 0 00-2.2-.945C103.974 43.956 108 53.332 107.556 62.6z"/></svg>