<?xml version="1.0" encoding="UTF-8"?>
<svg id="Layer_1" xmlns="http://www.w3.org/2000/svg" xmlns:xlink="http://www.w3.org/1999/xlink" viewBox="0 0 1061.14 490.67">
  <defs>
    <style>
      .cls-1 {
        fill: url(#linear-gradient-2);
      }

      .cls-1, .cls-2 {
        fill-rule: evenodd;
      }

      .cls-2 {
        fill: url(#linear-gradient);
      }
    </style>
    <linearGradient id="linear-gradient" x1="0" y1="141.71" x2="182.24" y2="141.71" gradientUnits="userSpaceOnUse">
      <stop offset="0" stop-color="#7e60bf"/>
      <stop offset="1" stop-color="#ff89b2"/>
    </linearGradient>
    <linearGradient id="linear-gradient-2" x1="47.2" y1="245.33" x2="1061.14" y2="245.33" xlink:href="#linear-gradient"/>
  </defs>
  <path class="cls-2" d="M57.44,274.17c4.92,2.95,10.37,5.24,16.14,6.78,11.43,3.01,23.69,3,35.12,0,5.81-1.53,11.29-3.82,16.24-6.78,4.99-3,9.38-6.63,13-10.78,7.09-8.16,10.9-17.99,10.88-28.06,0-4.95-.9-9.92-2.72-14.71-3.73-9.79-11.14-18.33-21.13-24.34-4.94-2.97-10.42-5.26-16.23-6.8-11.45-3.02-23.73-3.02-35.18,0-11.71,3.13-21.9,9.31-29.07,17.64-3.55,4.12-6.3,8.69-8.13,13.53-1.81,4.78-2.71,9.75-2.71,14.68s.89,9.85,2.71,14.59c3.73,9.76,11.13,18.26,21.1,24.25ZM182.24.21H0l91.31,172.41L182.24.21h0Z"/>
  <path class="cls-1" d="M240.07,415.76c0,4.68-1.11,9.31-3.26,13.64-4.35,8.72-12.67,15.66-23.14,19.28-5.19,1.79-10.75,2.71-16.36,2.71h-8.67c-5.59,0-11.19-.93-16.36-2.71-10.47-3.62-18.79-10.56-23.14-19.28-2.14-4.33-3.25-8.96-3.25-13.64l-.07-80.81-98.63-.11v61.01c0,12.41,2.97,24.82,8.66,36.28,5.72,11.5,14.11,21.95,24.67,30.76,10.57,8.8,23.11,15.78,36.91,20.55,13.81,4.75,28.6,7.21,43.54,7.22h60.98c14.89,0,29.78-2.48,43.54-7.22,13.8-4.77,26.34-11.75,36.91-20.55,10.56-8.81,18.94-19.26,24.67-30.76,5.7-11.51,8.64-23.83,8.66-36.28V.58l-95.68.11.05,415.07h0ZM969.02,334.95l-.08,71.75c0,4.66-1.12,9.33-3.24,13.64-2.15,4.32-5.3,8.25-9.27,11.56-3.97,3.31-8.68,5.94-13.87,7.72-5.19,1.79-10.75,2.71-16.36,2.71h-8.66c-5.61,0-11.17-.93-16.36-2.71-5.19-1.79-9.9-4.41-13.87-7.72-3.95-3.29-7.14-7.25-9.27-11.56s-3.26-8.97-3.26-13.64l.05-406.01-95.68-.11.03,479.92h281.88l.08-145.65-92.12.11h0ZM699.4,263.05c-4.73-9.32-11.59-17.78-20.21-24.91-8.05-6.66-17.72-11.8-28.36-15.09,8.85-3.54,16.97-8.22,24.07-13.87,7.23-5.72,13.61-12.51,17.91-20.16,4.32-7.71,6.55-16.12,6.56-24.64l.06-87.35c0-10.1-2.42-20.2-7.03-29.51s-11.46-17.84-20.02-24.97c-8.54-7.12-18.77-12.83-29.94-16.69-11.17-3.86-23.28-5.88-35.4-5.88h-190.28v480.52h197.52c37.37,0,71.06-18.76,85.36-47.53,4.63-9.36,7.02-19.38,7.03-29.51,0-36.83-.11-73.65,0-110.47,0-10.29-2.47-20.47-7.27-29.95h0ZM509.6,41.4l50.08-.14c11.34,0,22.22,3.75,30.23,10.44,3.96,3.3,7.14,7.25,9.27,11.56s3.23,8.97,3.26,13.64l.27,96.34c0,11.97-8.65,22.76-21.92,27.34-4.31,1.48-8.92,2.24-13.58,2.25l-57.6.18V41.4h0ZM603.62,418.26c-3.6,7.25-10.51,13.01-19.22,16.01-4.31,1.48-8.92,2.25-13.58,2.25l-61.22.18v-190.53l53.7-.14c11.34-.01,22.22,3.74,30.23,10.44,3.95,3.29,7.14,7.25,9.27,11.56s3.24,8.97,3.26,13.64l.27,125.27c0,3.88-.92,7.73-2.71,11.32h0Z"/>
</svg>