<?xml version="1.0" encoding="UTF-8"?>
<svg id="Layer_1" xmlns="http://www.w3.org/2000/svg" viewBox="0 0 227.54 216.67">
  <defs>
    <style>
      .cls-1 {
        fill: #dfc1fb;
      }

      .cls-2 {
        fill: #7950f2;
      }
    </style>
  </defs>
  <ellipse class="cls-2" cx="113.77" cy="108.33" rx="113.77" ry="108.33"/>
  <path class="cls-1" d="M44.26,40.6l-3.97,10.16c-.96,2.46-3,4.4-5.58,5.31l-10.67,3.77c-2.05.73-2.05,3.5,0,4.22l10.67,3.77c2.58.91,4.62,2.85,5.58,5.31l3.97,10.16c.77,1.96,3.68,1.96,4.44,0l3.97-10.16c.96-2.46,3-4.4,5.58-5.31l10.67-3.77c2.05-.73,2.05-3.5,0-4.22l-10.67-3.77c-2.58-.91-4.62-2.85-5.58-5.31l-3.97-10.16c-.77-1.96-3.68-1.96-4.45,0ZM181.72,115.17c4.82.05,8.72,3.93,8.06,8.47-1.85,12.65-7.88,24.86-18.09,34.64-25.02,23.74-65.48,23.74-90.5,0-24.94-23.82-24.94-62.32,0-86.13,10.27-9.72,23.11-15.46,36.4-17.22,4.76-.64,8.84,3.07,8.89,7.66.14,13.43,5.6,26.79,16.34,37.02,10.75,10.23,24.79,15.42,38.9,15.55Z"/>
</svg>